<svg width="82" height="82" viewBox="0 0 82 82" fill="none" xmlns="http://www.w3.org/2000/svg">
<circle r="37" transform="matrix(-1 0 0 1 41 41)" stroke="url(#paint0_linear_6287_3204)" stroke-width="8"/>
<g filter="url(#filter0_i_6287_3204)">
<path d="M0 41C0 35.6158 1.06049 30.2843 3.12094 25.31C5.18138 20.3356 8.20142 15.8158 12.0086 12.0086C15.8158 8.20142 20.3356 5.18138 25.31 3.12094C30.2843 1.0605 35.6158 -2.35351e-07 41 0C46.3842 2.35351e-07 51.7157 1.0605 56.69 3.12094C61.6644 5.18138 66.1842 8.20142 69.9914 12.0086C73.7986 15.8158 76.8186 20.3356 78.8791 25.31C80.9395 30.2843 82 35.6158 82 41L59.04 41C59.04 38.631 58.5734 36.2851 57.6668 34.0964C56.7602 31.9077 55.4314 29.919 53.7562 28.2438C52.081 26.5686 50.0923 25.2398 47.9036 24.3332C45.7149 23.4266 43.369 22.96 41 22.96C38.631 22.96 36.2851 23.4266 34.0964 24.3332C31.9077 25.2398 29.919 26.5686 28.2438 28.2438C26.5686 29.919 25.2398 31.9077 24.3332 34.0964C23.4266 36.2851 22.96 38.631 22.96 41H0Z" fill="url(#paint1_linear_6287_3204)"/>
</g>
<g filter="url(#filter1_i_6287_3204)">
<circle cx="41" cy="41" r="21.625" transform="rotate(-180 41 41)" stroke="url(#paint2_linear_6287_3204)" stroke-width="8"/>
</g>
<g filter="url(#filter2_ii_6287_3204)">
<path d="M66.625 41C66.625 44.3651 65.9622 47.6973 64.6744 50.8063C63.3866 53.9152 61.4991 56.7401 59.1196 59.1196C56.7401 61.4991 53.9152 63.3866 50.8063 64.6744C47.6973 65.9622 44.3651 66.625 41 66.625C37.6349 66.625 34.3027 65.9622 31.1937 64.6744C28.0848 63.3866 25.2599 61.4991 22.8804 59.1196C20.5009 56.7401 18.6134 53.9152 17.3256 50.8063C16.0378 47.6973 15.375 44.3651 15.375 41H29.725C29.725 42.4807 30.0166 43.9468 30.5833 45.3148C31.1499 46.6827 31.9804 47.9256 33.0274 48.9726C34.0744 50.0196 35.3173 50.8501 36.6852 51.4167C38.0532 51.9834 39.5193 52.275 41 52.275C42.4807 52.275 43.9468 51.9834 45.3148 51.4167C46.6827 50.8501 47.9256 50.0196 48.9726 48.9726C50.0196 47.9256 50.8501 46.6827 51.4167 45.3148C51.9834 43.9468 52.275 42.4807 52.275 41H66.625Z" fill="url(#paint3_linear_6287_3204)"/>
</g>
<defs>
<filter id="filter0_i_6287_3204" x="0" y="0" width="82" height="45" filterUnits="userSpaceOnUse" color-interpolation-filters="sRGB">
<feFlood flood-opacity="0" result="BackgroundImageFix"/>
<feBlend mode="normal" in="SourceGraphic" in2="BackgroundImageFix" result="shape"/>
<feColorMatrix in="SourceAlpha" type="matrix" values="0 0 0 0 0 0 0 0 0 0 0 0 0 0 0 0 0 0 127 0" result="hardAlpha"/>
<feOffset dy="4"/>
<feGaussianBlur stdDeviation="2.5"/>
<feComposite in2="hardAlpha" operator="arithmetic" k2="-1" k3="1"/>
<feColorMatrix type="matrix" values="0 0 0 0 1 0 0 0 0 1 0 0 0 0 1 0 0 0 0.25 0"/>
<feBlend mode="normal" in2="shape" result="effect1_innerShadow_6287_3204"/>
</filter>
<filter id="filter1_i_6287_3204" x="15.375" y="15.375" width="51.25" height="55.25" filterUnits="userSpaceOnUse" color-interpolation-filters="sRGB">
<feFlood flood-opacity="0" result="BackgroundImageFix"/>
<feBlend mode="normal" in="SourceGraphic" in2="BackgroundImageFix" result="shape"/>
<feColorMatrix in="SourceAlpha" type="matrix" values="0 0 0 0 0 0 0 0 0 0 0 0 0 0 0 0 0 0 127 0" result="hardAlpha"/>
<feOffset dy="4"/>
<feGaussianBlur stdDeviation="2"/>
<feComposite in2="hardAlpha" operator="arithmetic" k2="-1" k3="1"/>
<feColorMatrix type="matrix" values="0 0 0 0 0 0 0 0 0 0 0 0 0 0 0 0 0 0 0.25 0"/>
<feBlend mode="normal" in2="shape" result="effect1_innerShadow_6287_3204"/>
</filter>
<filter id="filter2_ii_6287_3204" x="15.375" y="37" width="51.25" height="33.625" filterUnits="userSpaceOnUse" color-interpolation-filters="sRGB">
<feFlood flood-opacity="0" result="BackgroundImageFix"/>
<feBlend mode="normal" in="SourceGraphic" in2="BackgroundImageFix" result="shape"/>
<feColorMatrix in="SourceAlpha" type="matrix" values="0 0 0 0 0 0 0 0 0 0 0 0 0 0 0 0 0 0 127 0" result="hardAlpha"/>
<feOffset dy="-4"/>
<feGaussianBlur stdDeviation="3"/>
<feComposite in2="hardAlpha" operator="arithmetic" k2="-1" k3="1"/>
<feColorMatrix type="matrix" values="0 0 0 0 1 0 0 0 0 1 0 0 0 0 1 0 0 0 0.25 0"/>
<feBlend mode="normal" in2="shape" result="effect1_innerShadow_6287_3204"/>
<feColorMatrix in="SourceAlpha" type="matrix" values="0 0 0 0 0 0 0 0 0 0 0 0 0 0 0 0 0 0 127 0" result="hardAlpha"/>
<feOffset dy="4"/>
<feGaussianBlur stdDeviation="3"/>
<feComposite in2="hardAlpha" operator="arithmetic" k2="-1" k3="1"/>
<feColorMatrix type="matrix" values="0 0 0 0 0 0 0 0 0 0 0 0 0 0 0 0 0 0 0.2 0"/>
<feBlend mode="normal" in2="effect1_innerShadow_6287_3204" result="effect2_innerShadow_6287_3204"/>
</filter>
<linearGradient id="paint0_linear_6287_3204" x1="-12.8125" y1="41" x2="89.0469" y2="82" gradientUnits="userSpaceOnUse">
<stop stop-color="#6DD4BC"/>
<stop offset="1" stop-color="#0E0E0E"/>
</linearGradient>
<linearGradient id="paint1_linear_6287_3204" x1="15.375" y1="5.12499" x2="89.6875" y2="57.0156" gradientUnits="userSpaceOnUse">
<stop stop-color="#6DD4BC"/>
<stop offset="1" stop-color="#1B1B1B"/>
</linearGradient>
<linearGradient id="paint2_linear_6287_3204" x1="15.375" y1="42.2812" x2="69.8281" y2="60.8594" gradientUnits="userSpaceOnUse">
<stop stop-color="#6DD4BC"/>
<stop offset="1" stop-color="#0E0E0E"/>
</linearGradient>
<linearGradient id="paint3_linear_6287_3204" x1="17.9375" y1="55.7344" x2="58.9375" y2="32.6719" gradientUnits="userSpaceOnUse">
<stop stop-color="#6DD5BC"/>
<stop offset="1" stop-color="#313131"/>
</linearGradient>
</defs>
</svg>
