<svg width="87" height="87" viewBox="0 0 87 87" fill="none" xmlns="http://www.w3.org/2000/svg">
<path fill-rule="evenodd" clip-rule="evenodd" d="M0.0209122 7.62938C0.00705719 7.8872 6.86646e-05 8.146 6.86646e-05 8.40573C6.86646e-05 8.66547 0.00705719 8.92423 0.0209122 9.18204C0.00705719 9.43986 6.86646e-05 9.69866 6.86646e-05 9.95839C6.86646e-05 23.6781 19.4757 34.8 43.5 34.8C67.5244 34.8 87 23.6781 87 9.95839C87 9.69867 86.993 9.43987 86.9792 9.18206C86.993 8.92426 87 8.66546 87 8.40573C87 8.14601 86.993 7.88721 86.9792 7.6294C86.993 7.3716 87 7.1128 87 6.85307C87 6.59342 86.993 6.33469 86.9792 6.07696C86.993 5.81922 87 5.56049 87 5.30084C87 5.04104 86.993 4.78217 86.9792 4.5243C86.993 4.26642 87 4.00755 87 3.74775C87 3.4881 86.993 3.22937 86.9792 2.97164C86.993 2.7139 87 2.45517 87 2.19552C87 1.93579 86.993 1.677 86.9792 1.41919C86.9842 1.326 86.9883 1.23269 86.9915 1.13925C85.0056 3.12107 82.6134 4.95235 79.8801 6.59584C78.1562 8.20311 76.0906 9.7001 73.7199 11.054C66.0402 15.4396 55.3581 18.1868 43.5 18.1868C31.6419 18.1868 20.9599 15.4396 13.2802 11.054C10.3228 9.3651 7.84037 7.4535 5.90361 5.38296C13.4453 12.7626 27.4587 17.7212 43.5 17.7212C58.4868 17.7212 71.7034 13.3932 79.5263 6.80638C77.2139 8.16852 74.6644 9.39797 71.9158 10.4729C64.4081 14.2886 54.456 16.6337 43.5 16.6337C31.6419 16.6337 20.9599 13.8866 13.2802 9.5009C12.6208 9.12434 11.985 8.73671 11.3737 8.33871C6.7348 6.00164 2.8663 3.17508 0.0143585 0C0.00485229 0.213626 6.86646e-05 0.427924 6.86646e-05 0.642859C6.86646e-05 0.902593 0.00705719 1.16135 0.0209122 1.41917C0.00705719 1.67698 6.86646e-05 1.93578 6.86646e-05 2.19552C6.86646e-05 2.45518 0.00704956 2.71387 0.0208969 2.97161C0.00704956 3.22936 6.86646e-05 3.48809 6.86646e-05 3.74775C6.86646e-05 4.00756 0.00705719 4.26639 0.0209198 4.52427C0.00705719 4.78216 6.86646e-05 5.04103 6.86646e-05 5.30084C6.86646e-05 5.5605 0.00704956 5.81919 0.0208969 6.07693C0.00704956 6.33468 6.86646e-05 6.59341 6.86646e-05 6.85307C6.86646e-05 7.11281 0.00705719 7.37157 0.0209122 7.62938ZM5.91299 6.94523C13.4569 14.3198 27.4653 19.2743 43.5 19.2743C59.5347 19.2743 73.5431 14.3198 81.0871 6.94523C79.1517 9.01191 76.6725 10.9201 73.7199 12.6062C66.0402 16.9919 55.3581 19.739 43.5 19.739C31.6419 19.739 20.9599 16.9919 13.2802 12.6062C10.3276 10.9201 7.84839 9.01191 5.91299 6.94523ZM13.2802 14.1589C10.3252 12.4714 7.84436 10.5615 5.90829 8.49285C13.4511 15.8699 27.462 20.8265 43.5 20.8265C59.5381 20.8265 73.5489 15.87 81.0918 8.49288C79.1557 10.5615 76.6749 12.4714 73.7199 14.1589C66.0402 18.5445 55.3581 21.2917 43.5 21.2917C31.6419 21.2917 20.9599 18.5445 13.2802 14.1589ZM5.90829 10.0455C7.84437 12.1141 10.3252 14.024 13.2802 15.7115C20.9599 20.0972 31.6419 22.8443 43.5 22.8443C55.3581 22.8443 66.0402 20.0972 73.7199 15.7115C76.6749 14.024 79.1557 12.1142 81.0917 10.0456C73.5489 17.4226 59.5381 22.3792 43.5 22.3792C27.462 22.3792 13.4511 17.4226 5.90829 10.0455ZM13.2802 17.2642C10.3252 15.5767 7.84435 13.6668 5.90826 11.5982C13.4511 18.9752 27.462 23.9318 43.5 23.9318C59.5381 23.9318 73.5489 18.9753 81.0917 11.5982C79.1557 13.6668 76.6749 15.5767 73.7199 17.2642C66.0402 21.6499 55.3581 24.397 43.5 24.397C31.6419 24.397 20.9599 21.6499 13.2802 17.2642ZM5.9083 13.1508C7.84438 15.2195 10.3252 17.1293 13.2802 18.8169C20.9599 23.2025 31.6419 25.9497 43.5 25.9497C55.3581 25.9497 66.0402 23.2025 73.7199 18.8169C76.6748 17.1293 79.1556 15.2195 81.0917 13.1509C73.5489 20.528 59.538 25.4845 43.5 25.4845C27.462 25.4845 13.4511 20.5279 5.9083 13.1508ZM13.2802 20.3691C10.3276 18.6829 7.84843 16.7748 5.91305 14.7082C13.457 22.0827 27.4654 27.0372 43.5 27.0372C59.5347 27.0372 73.5431 22.0827 81.087 14.7081C79.1516 16.7748 76.6725 18.6829 73.7199 20.3691C66.0402 24.7548 55.3581 27.5019 43.5 27.5019C31.6419 27.5019 20.9599 24.7548 13.2802 20.3691ZM5.90366 16.2512C7.84042 18.3217 10.3228 20.2333 13.2802 21.9222C20.9599 26.3078 31.6419 29.055 43.5 29.055C55.3581 29.055 66.0402 26.3078 73.7199 21.9222C76.6772 20.2333 79.1596 18.3217 81.0964 16.2512C73.5547 23.6308 59.5413 28.5894 43.5 28.5894C27.4587 28.5894 13.4454 23.6308 5.90366 16.2512ZM13.2802 23.4744C10.3276 21.7883 7.84843 19.8801 5.91306 17.8135C13.457 25.188 27.4654 30.1425 43.5 30.1425C59.5347 30.1425 73.5431 25.188 81.0871 17.8134C79.1517 19.8801 76.6725 21.7883 73.7199 23.4744C66.0402 27.8601 55.3581 30.6072 43.5 30.6072C31.6419 30.6072 20.9599 27.8601 13.2802 23.4744ZM5.90836 19.3611C13.4512 26.7382 27.462 31.6947 43.5 31.6947C59.5381 31.6947 73.5489 26.7382 81.0918 19.3611C79.1557 21.4297 76.6749 23.3396 73.7199 25.0271C66.0402 29.4127 55.3581 32.1599 43.5 32.1599C31.6419 32.1599 20.9599 29.4127 13.2802 25.0271C10.3252 23.3396 7.84444 21.4297 5.90836 19.3611ZM73.7199 26.5797C76.6749 24.8922 79.1557 22.9823 81.0918 20.9137C73.5489 28.2908 59.5381 33.2474 43.5 33.2474C27.462 33.2474 13.4511 28.2908 5.90829 20.9137C7.84436 22.9823 10.3252 24.8922 13.2802 26.5797C20.9599 30.9654 31.6419 33.7125 43.5 33.7125C55.3581 33.7125 66.0402 30.9654 73.7199 26.5797Z" fill="url(#paint0_linear_6287_3193)"/>
<path fill-rule="evenodd" clip-rule="evenodd" d="M86.9791 79.3706C86.9929 79.1128 86.9999 78.854 86.9999 78.5943C86.9999 78.3345 86.9929 78.0758 86.9791 77.818C86.9929 77.5601 86.9999 77.3013 86.9999 77.0416C86.9999 63.3219 67.5243 52.2 43.5 52.2C19.4756 52.2 0 63.3219 0 77.0416C0 77.3013 0.00697972 77.5601 0.0208379 77.8179C0.00697972 78.0757 0 78.3345 0 78.5943C0 78.854 0.00697972 79.1128 0.0208379 79.3706C0.00697972 79.6284 0 79.8872 0 80.1469C0 80.4066 0.00697588 80.6653 0.0208265 80.923C0.00697588 81.1808 0 81.4395 0 81.6992C0 81.959 0.00698355 82.2178 0.0208493 82.4757C0.00698355 82.7336 0 82.9924 0 83.2522C0 83.5119 0.00697588 83.7706 0.0208265 84.0284C0.00697588 84.2861 0 84.5448 0 84.8045C0 85.0642 0.00697972 85.323 0.0208379 85.5808C0.0158288 85.674 0.0117184 85.7673 0.00851147 85.8607C1.99439 83.8789 4.38655 82.0476 7.11994 80.4042C8.84383 78.7969 10.9094 77.2999 13.2801 75.946C20.9598 71.5603 31.6419 68.8132 43.5 68.8132C55.3581 68.8132 66.0401 71.5603 73.7198 75.946C76.6772 77.6349 79.1596 79.5465 81.0964 81.617C73.5547 74.2374 59.5413 69.2788 43.5 69.2788C28.5132 69.2788 15.2966 73.6068 7.4737 80.1936C9.78611 78.8315 12.3356 77.602 15.0842 76.5271C22.5919 72.7114 32.544 70.3663 43.5 70.3663C55.3581 70.3663 66.0401 73.1134 73.7198 77.4991C74.3792 77.8757 75.015 78.2633 75.6263 78.6613C80.2652 80.9984 84.1337 83.8249 86.9856 87C86.9951 86.7864 86.9999 86.5721 86.9999 86.3571C86.9999 86.0974 86.9929 85.8386 86.9791 85.5808C86.9929 85.323 86.9999 85.0642 86.9999 84.8045C86.9999 84.5448 86.993 84.2861 86.9791 84.0284C86.993 83.7706 86.9999 83.5119 86.9999 83.2522C86.9999 82.9924 86.9929 82.7336 86.9791 82.4757C86.9929 82.2178 86.9999 81.959 86.9999 81.6992C86.9999 81.4395 86.993 81.1808 86.9791 80.9231C86.993 80.6653 86.9999 80.4066 86.9999 80.1469C86.9999 79.8872 86.9929 79.6284 86.9791 79.3706ZM81.087 80.0548C73.5431 72.6802 59.5347 67.7257 43.5 67.7257C27.4653 67.7257 13.4569 72.6802 5.91293 80.0548C7.84833 77.9881 10.3275 76.0799 13.2801 74.3938C20.9598 70.0081 31.6419 67.261 43.5 67.261C55.3581 67.261 66.0401 70.0081 73.7198 74.3938C76.6724 76.0799 79.1516 77.9881 81.087 80.0548ZM73.7198 72.8411C76.6748 74.5286 79.1556 76.4385 81.0917 78.5071C73.5489 71.1301 59.538 66.1735 43.5 66.1735C27.4619 66.1735 13.4511 71.13 5.90824 78.5071C7.84432 76.4385 10.3251 74.5286 13.2801 72.8411C20.9598 68.4554 31.6419 65.7083 43.5 65.7083C55.3581 65.7083 66.0401 68.4554 73.7198 72.8411ZM81.0917 76.9545C79.1556 74.8859 76.6748 72.976 73.7198 71.2885C66.0401 66.9028 55.3581 64.1556 43.5 64.1556C31.6419 64.1556 20.9598 66.9028 13.2801 71.2885C10.3251 72.976 7.84434 74.8858 5.90826 76.9544C13.4511 69.5774 27.4619 64.6208 43.5 64.6208C59.538 64.6208 73.5489 69.5774 81.0917 76.9545ZM73.7198 69.7358C76.6748 71.4233 79.1556 73.3332 81.0917 75.4018C73.5489 68.0247 59.538 63.0681 43.5 63.0681C27.4619 63.0681 13.4511 68.0247 5.90826 75.4018C7.84434 73.3332 10.3251 71.4233 13.2801 69.7358C20.9598 65.3501 31.6419 62.603 43.5 62.603C55.3581 62.603 66.0401 65.3501 73.7198 69.7358ZM81.0917 73.8491C79.1556 71.7805 76.6748 69.8707 73.7198 68.1831C66.0401 63.7975 55.3581 61.0503 43.5 61.0503C31.6419 61.0503 20.9598 63.7975 13.2801 68.1831C10.3252 69.8706 7.84436 71.7805 5.90829 73.8491C13.4511 66.472 27.462 61.5155 43.5 61.5155C59.538 61.5155 73.5489 66.4721 81.0917 73.8491ZM73.7198 66.6309C76.6724 68.317 79.1516 70.2252 81.087 72.2918C73.543 64.9173 59.5346 59.9628 43.5 59.9628C27.4653 59.9628 13.4569 64.9173 5.91298 72.2918C7.84836 70.2252 10.3275 68.317 13.2801 66.6309C20.9598 62.2452 31.6419 59.4981 43.5 59.4981C55.3581 59.4981 66.0401 62.2452 73.7198 66.6309ZM81.0963 70.7488C79.1596 68.6783 76.6772 66.7667 73.7198 65.0778C66.0401 60.6921 55.3581 57.945 43.5 57.945C31.6419 57.945 20.9598 60.6921 13.2801 65.0778C10.3228 66.7667 7.84037 68.6783 5.90361 70.7488C13.4453 63.3692 27.4587 58.4106 43.5 58.4106C59.5413 58.4106 73.5546 63.3692 81.0963 70.7488ZM73.7198 63.5256C76.6724 65.2117 79.1516 67.1199 81.0869 69.1865C73.543 61.812 59.5346 56.8575 43.5 56.8575C27.4653 56.8575 13.4569 61.812 5.91294 69.1866C7.84833 67.1199 10.3275 65.2117 13.2801 63.5256C20.9598 59.1399 31.6419 56.3928 43.5 56.3928C55.3581 56.3928 66.0401 59.1399 73.7198 63.5256ZM81.0916 67.6389C73.5488 60.2618 59.538 55.3053 43.5 55.3053C27.4619 55.3053 13.4511 60.2618 5.90824 67.6389C7.84432 65.5703 10.3251 63.6604 13.2801 61.9729C20.9598 57.5873 31.6419 54.8401 43.5 54.8401C55.3581 54.8401 66.0401 57.5873 73.7198 61.9729C76.6748 63.6604 79.1556 65.5703 81.0916 67.6389ZM13.2801 60.4203C10.3251 62.1078 7.84432 64.0177 5.90824 66.0863C13.4511 58.7092 27.4619 53.7526 43.5 53.7526C59.538 53.7526 73.5489 58.7092 81.0917 66.0863C79.1556 64.0177 76.6748 62.1078 73.7198 60.4203C66.0401 56.0346 55.3581 53.2875 43.5 53.2875C31.6419 53.2875 20.9598 56.0346 13.2801 60.4203Z" fill="url(#paint1_linear_6287_3193)"/>
<path fill-rule="evenodd" clip-rule="evenodd" d="M79.3699 0.020842C79.1121 0.00698604 78.8533 0 78.5935 0C78.3338 0 78.075 0.00698604 77.8172 0.020842C77.5594 0.00698604 77.3006 0 77.0409 0C63.3212 0 52.1992 19.4756 52.1992 43.5C52.1992 67.5243 63.3212 86.9999 77.0409 86.9999C77.3006 86.9999 77.5594 86.993 77.8172 86.9791C78.075 86.993 78.3338 86.9999 78.5935 86.9999C78.8533 86.9999 79.1121 86.993 79.3699 86.9791C79.6277 86.993 79.8865 86.9999 80.1462 86.9999C80.4058 86.9999 80.6646 86.993 80.9223 86.9791C81.18 86.993 81.4388 86.9999 81.6984 86.9999C81.9582 86.9999 82.2171 86.993 82.475 86.9791C82.7328 86.993 82.9917 86.9999 83.2515 86.9999C83.5112 86.9999 83.7699 86.993 84.0276 86.9791C84.2854 86.993 84.5441 86.9999 84.8037 86.9999C85.0635 86.9999 85.3223 86.993 85.5801 86.9791C85.6733 86.9841 85.7666 86.9882 85.86 86.9914C83.8782 85.0055 82.0469 82.6134 80.4034 79.88C78.7962 78.1561 77.2992 76.0906 75.9453 73.7198C71.5596 66.0401 68.8125 55.3581 68.8125 43.5C68.8125 31.6419 71.5596 20.9598 75.9453 13.2801C77.6342 10.3227 79.5458 7.8403 81.6163 5.90354C74.2367 13.4453 69.2781 27.4586 69.2781 43.5C69.2781 58.4867 73.6061 71.7033 80.1929 79.5262C78.8307 77.2138 77.6013 74.6643 76.5264 71.9158C72.7106 64.408 70.3656 54.456 70.3656 43.5C70.3656 31.6419 73.1127 20.9598 77.4984 13.2801C77.8749 12.6207 78.2626 11.985 78.6606 11.3736C80.9976 6.73473 83.8242 2.86623 86.9993 0.0142874C86.7856 0.00478735 86.5713 0 86.3564 0C86.0967 0 85.8379 0.00698604 85.5801 0.020842C85.3223 0.00698604 85.0635 0 84.8037 0C84.5441 0 84.2854 0.00697774 84.0276 0.0208254C83.7699 0.00697774 83.5112 0 83.2515 0C82.9917 0 82.7329 0.00698604 82.475 0.0208503C82.2171 0.00698604 81.9582 0 81.6984 0C81.4388 0 81.1801 0.00697774 80.9223 0.0208254C80.6646 0.00697774 80.4059 0 80.1462 0C79.8865 0 79.6277 0.00698604 79.3699 0.020842ZM80.054 5.91293C72.6795 13.4569 67.725 27.4653 67.725 43.5C67.725 59.5347 72.6795 73.543 80.054 81.087C77.9874 79.1516 76.0792 76.6724 74.393 73.7198C70.0074 66.0401 67.2602 55.3581 67.2602 43.5C67.2602 31.6419 70.0074 20.9598 74.393 13.2801C76.0792 10.3275 77.9874 7.84832 80.054 5.91293ZM72.8404 13.2801C74.5279 10.3251 76.4378 7.84429 78.5064 5.90822C71.1293 13.4511 66.1727 27.4619 66.1727 43.5C66.1727 59.538 71.1293 73.5488 78.5064 81.0917C76.4378 79.1556 74.5279 76.6748 72.8404 73.7198C68.4547 66.0401 65.7076 55.3581 65.7076 43.5C65.7076 31.6419 68.4547 20.9598 72.8404 13.2801ZM76.9537 5.90822C74.8851 7.8443 72.9753 10.3251 71.2877 13.2801C66.9021 20.9598 64.1549 31.6419 64.1549 43.5C64.1549 55.3581 66.9021 66.0401 71.2877 73.7198C72.9752 76.6748 74.8851 79.1556 76.9537 81.0917C69.5766 73.5488 64.6201 59.538 64.6201 43.5C64.6201 27.4619 69.5767 13.4511 76.9537 5.90822ZM69.7351 13.2801C71.4226 10.3251 73.3325 7.84429 75.4011 5.9082C68.024 13.451 63.0674 27.4619 63.0674 43.5C63.0674 59.538 68.024 73.5488 75.401 81.0917C73.3324 79.1556 71.4226 76.6748 69.7351 73.7198C65.3494 66.0401 62.6023 55.3581 62.6023 43.5C62.6023 31.6419 65.3494 20.9598 69.7351 13.2801ZM73.8484 5.90823C71.7798 7.84431 69.8699 10.3251 68.1824 13.2801C63.7967 20.9598 61.0496 31.6419 61.0496 43.5C61.0496 55.3581 63.7967 66.0401 68.1824 73.7198C69.8699 76.6748 71.7798 79.1556 73.8484 81.0916C66.4713 73.5488 61.5148 59.538 61.5148 43.5C61.5148 27.462 66.4713 13.4511 73.8484 5.90823ZM66.6302 13.2801C68.3163 10.3275 70.2244 7.84837 72.2911 5.91298C64.9166 13.4569 59.9621 27.4653 59.9621 43.5C59.9621 59.5346 64.9166 73.543 72.2911 81.087C70.2245 79.1516 68.3163 76.6724 66.6302 73.7198C62.2445 66.0401 59.4974 55.3581 59.4974 43.5C59.4974 31.6419 62.2445 20.9598 66.6302 13.2801ZM70.7481 5.90359C68.6775 7.84034 66.766 10.3228 65.0771 13.2801C60.6914 20.9598 57.9443 31.6419 57.9443 43.5C57.9443 55.3581 60.6914 66.0401 65.0771 73.7198C66.766 76.6771 68.6775 79.1596 70.748 81.0963C63.3685 73.5546 58.4099 59.5413 58.4099 43.5C58.4099 27.4586 63.3685 13.4453 70.7481 5.90359ZM63.5248 13.2801C65.211 10.3275 67.1191 7.84837 69.1858 5.91299C61.8113 13.4569 56.8568 27.4653 56.8568 43.5C56.8568 59.5347 61.8113 73.543 69.1858 81.087C67.1192 79.1516 65.211 76.6724 63.5248 73.7198C59.1392 66.0401 56.392 55.3581 56.392 43.5C56.392 31.6419 59.1392 20.9598 63.5248 13.2801ZM67.6381 5.9083C60.2611 13.4511 55.3045 27.462 55.3045 43.5C55.3045 59.538 60.2611 73.5489 67.6382 81.0917C65.5696 79.1556 63.6597 76.6748 61.9722 73.7198C57.5865 66.0401 54.8394 55.3581 54.8394 43.5C54.8394 31.6419 57.5865 20.9598 61.9722 13.2801C63.6597 10.3252 65.5695 7.84437 67.6381 5.9083ZM60.4195 73.7198C62.107 76.6748 64.0169 79.1556 66.0855 81.0917C58.7084 73.5489 53.7519 59.538 53.7519 43.5C53.7519 27.4619 58.7085 13.451 66.0855 5.90822C64.0169 7.84429 62.1071 10.3251 60.4195 13.2801C56.0339 20.9598 53.2867 31.6419 53.2867 43.5C53.2867 55.3581 56.0339 66.0401 60.4195 73.7198Z" fill="url(#paint2_linear_6287_3193)"/>
<path fill-rule="evenodd" clip-rule="evenodd" d="M7.62938 0.020842C7.8872 0.00698604 8.146 0 8.40573 0C8.66547 0 8.92423 0.00698604 9.18204 0.020842C9.43986 0.00698604 9.69866 0 9.95839 0C23.6781 0 34.8 19.4756 34.8 43.5C34.8 67.5243 23.6781 86.9999 9.95839 86.9999C9.69867 86.9999 9.43987 86.993 9.18206 86.9791C8.92426 86.993 8.66546 86.9999 8.40573 86.9999C8.14601 86.9999 7.88721 86.993 7.6294 86.9791C7.3716 86.993 7.1128 86.9999 6.85307 86.9999C6.59342 86.9999 6.33469 86.993 6.07696 86.9791C5.81922 86.993 5.56049 86.9999 5.30084 86.9999C5.04104 86.9999 4.78217 86.993 4.5243 86.9791C4.26642 86.993 4.00755 86.9999 3.74775 86.9999C3.4881 86.9999 3.22937 86.993 2.97164 86.9791C2.7139 86.993 2.45517 86.9999 2.19552 86.9999C1.93579 86.9999 1.677 86.993 1.41919 86.9791C1.326 86.9841 1.23269 86.9882 1.13925 86.9914C3.12107 85.0055 4.95235 82.6134 6.59584 79.88C8.20311 78.1561 9.7001 76.0906 11.054 73.7198C15.4396 66.0401 18.1868 55.3581 18.1868 43.5C18.1868 31.6419 15.4396 20.9598 11.054 13.2801C9.3651 10.3227 7.4535 7.8403 5.38296 5.90354C12.7626 13.4453 17.7212 27.4586 17.7212 43.5C17.7212 58.4867 13.3932 71.7033 6.80638 79.5262C8.16852 77.2138 9.39797 74.6643 10.4729 71.9158C14.2886 64.408 16.6337 54.456 16.6337 43.5C16.6337 31.6419 13.8866 20.9598 9.5009 13.2801C9.12434 12.6207 8.73671 11.985 8.33871 11.3736C6.00164 6.73473 3.17508 2.86623 0 0.0142874C0.213626 0.00478735 0.427924 0 0.642859 0C0.902593 0 1.16135 0.00698604 1.41917 0.020842C1.67698 0.00698604 1.93578 0 2.19552 0C2.45518 0 2.71387 0.00697774 2.97161 0.0208254C3.22936 0.00697774 3.48809 0 3.74775 0C4.00756 0 4.26639 0.00698604 4.52427 0.0208503C4.78216 0.00698604 5.04103 0 5.30084 0C5.5605 0 5.81919 0.00697774 6.07693 0.0208254C6.33468 0.00697774 6.59341 0 6.85307 0C7.11281 0 7.37157 0.00698604 7.62938 0.020842ZM6.94523 5.91293C14.3198 13.4569 19.2743 27.4653 19.2743 43.5C19.2743 59.5347 14.3198 73.543 6.94523 81.087C9.01191 79.1516 10.9201 76.6724 12.6062 73.7198C16.9919 66.0401 19.739 55.3581 19.739 43.5C19.739 31.6419 16.9919 20.9598 12.6062 13.2801C10.9201 10.3275 9.01191 7.84832 6.94523 5.91293ZM14.1589 13.2801C12.4714 10.3251 10.5615 7.84429 8.49285 5.90822C15.8699 13.4511 20.8265 27.4619 20.8265 43.5C20.8265 59.538 15.87 73.5488 8.49288 81.0917C10.5615 79.1556 12.4714 76.6748 14.1589 73.7198C18.5445 66.0401 21.2917 55.3581 21.2917 43.5C21.2917 31.6419 18.5445 20.9598 14.1589 13.2801ZM10.0455 5.90822C12.1141 7.8443 14.024 10.3251 15.7115 13.2801C20.0972 20.9598 22.8443 31.6419 22.8443 43.5C22.8443 55.3581 20.0972 66.0401 15.7115 73.7198C14.024 76.6748 12.1142 79.1556 10.0456 81.0917C17.4226 73.5488 22.3792 59.538 22.3792 43.5C22.3792 27.4619 17.4226 13.4511 10.0455 5.90822ZM17.2642 13.2801C15.5767 10.3251 13.6668 7.84429 11.5982 5.9082C18.9752 13.451 23.9318 27.4619 23.9318 43.5C23.9318 59.538 18.9753 73.5488 11.5982 81.0917C13.6668 79.1556 15.5767 76.6748 17.2642 73.7198C21.6499 66.0401 24.397 55.3581 24.397 43.5C24.397 31.6419 21.6499 20.9598 17.2642 13.2801ZM13.1508 5.90823C15.2195 7.84431 17.1293 10.3251 18.8169 13.2801C23.2025 20.9598 25.9497 31.6419 25.9497 43.5C25.9497 55.3581 23.2025 66.0401 18.8169 73.7198C17.1293 76.6748 15.2195 79.1556 13.1509 81.0916C20.528 73.5488 25.4845 59.538 25.4845 43.5C25.4845 27.462 20.5279 13.4511 13.1508 5.90823ZM20.3691 13.2801C18.6829 10.3275 16.7748 7.84837 14.7082 5.91298C22.0827 13.4569 27.0372 27.4653 27.0372 43.5C27.0372 59.5346 22.0827 73.543 14.7081 81.087C16.7748 79.1516 18.6829 76.6724 20.3691 73.7198C24.7548 66.0401 27.5019 55.3581 27.5019 43.5C27.5019 31.6419 24.7548 20.9598 20.3691 13.2801ZM16.2512 5.90359C18.3217 7.84034 20.2333 10.3228 21.9222 13.2801C26.3078 20.9598 29.055 31.6419 29.055 43.5C29.055 55.3581 26.3078 66.0401 21.9222 73.7198C20.2333 76.6771 18.3217 79.1596 16.2512 81.0963C23.6308 73.5546 28.5894 59.5413 28.5894 43.5C28.5894 27.4586 23.6308 13.4453 16.2512 5.90359ZM23.4744 13.2801C21.7883 10.3275 19.8801 7.84837 17.8135 5.91299C25.188 13.4569 30.1425 27.4653 30.1425 43.5C30.1425 59.5347 25.188 73.543 17.8134 81.087C19.8801 79.1516 21.7883 76.6724 23.4744 73.7198C27.8601 66.0401 30.6072 55.3581 30.6072 43.5C30.6072 31.6419 27.8601 20.9598 23.4744 13.2801ZM19.3611 5.9083C26.7382 13.4511 31.6947 27.462 31.6947 43.5C31.6947 59.538 26.7382 73.5489 19.3611 81.0917C21.4297 79.1556 23.3396 76.6748 25.0271 73.7198C29.4127 66.0401 32.1599 55.3581 32.1599 43.5C32.1599 31.6419 29.4127 20.9598 25.0271 13.2801C23.3396 10.3252 21.4297 7.84437 19.3611 5.9083ZM26.5797 73.7198C24.8922 76.6748 22.9823 79.1556 20.9137 81.0917C28.2908 73.5489 33.2474 59.538 33.2474 43.5C33.2474 27.4619 28.2908 13.451 20.9137 5.90822C22.9823 7.84429 24.8922 10.3251 26.5797 13.2801C30.9654 20.9598 33.7125 31.6419 33.7125 43.5C33.7125 55.3581 30.9654 66.0401 26.5797 73.7198Z" fill="url(#paint3_linear_6287_3193)"/>
<defs>
<linearGradient id="paint0_linear_6287_3193" x1="42.4125" y1="37.5187" x2="44.9453" y2="8.92433" gradientUnits="userSpaceOnUse">
<stop stop-color="#4152EF"/>
<stop offset="1" stop-color="#4152EF" stop-opacity="0"/>
</linearGradient>
<linearGradient id="paint1_linear_6287_3193" x1="44.5875" y1="46.9999" x2="47.8832" y2="84.208" gradientUnits="userSpaceOnUse">
<stop stop-color="#4152EF"/>
<stop offset="1" stop-color="#4152EF" stop-opacity="0"/>
</linearGradient>
<linearGradient id="paint2_linear_6287_3193" x1="50.8942" y1="41.8687" x2="80.2439" y2="44.4684" gradientUnits="userSpaceOnUse">
<stop stop-color="#4152EF"/>
<stop offset="1" stop-color="#4152EF" stop-opacity="0"/>
</linearGradient>
<linearGradient id="paint3_linear_6287_3193" x1="36.105" y1="41.8687" x2="6.21574" y2="44.5162" gradientUnits="userSpaceOnUse">
<stop stop-color="#4152EF"/>
<stop offset="1" stop-color="#4152EF" stop-opacity="0"/>
</linearGradient>
</defs>
</svg>
