<svg width="87" height="87" viewBox="0 0 87 87" fill="none" xmlns="http://www.w3.org/2000/svg">
<g opacity="0.9">
<path fill-rule="evenodd" clip-rule="evenodd" d="M17.3984 26.1C17.3984 11.6854 29.0838 0 43.4984 0C57.9131 0 69.5984 11.6854 69.5984 26.1V60.9C69.5984 75.3146 57.9131 87 43.4984 87C29.0838 87 17.3984 75.3146 17.3984 60.9V26.1ZM26.0984 58.725C26.0984 68.3348 33.8887 76.125 43.4984 76.125C53.1082 76.125 60.8984 68.3348 60.8984 58.725V28.275C60.8984 18.6652 53.1082 10.875 43.4984 10.875C33.8887 10.875 26.0984 18.6652 26.0984 28.275V58.725Z" fill="url(#paint0_linear_6287_3180)"/>
<path fill-rule="evenodd" clip-rule="evenodd" d="M26.1 69.6001C11.6854 69.6001 0 57.9147 0 43.5001C0 29.0855 11.6854 17.4001 26.1 17.4001H60.9C75.3146 17.4001 87 29.0855 87 43.5001C87 57.9147 75.3146 69.6001 60.9 69.6001H26.1ZM58.725 60.9001C68.3348 60.9001 76.125 53.1099 76.125 43.5001C76.125 33.8903 68.3348 26.1001 58.725 26.1001H28.275C18.6652 26.1001 10.875 33.8903 10.875 43.5001C10.875 53.1099 18.6652 60.9001 28.275 60.9001H58.725Z" fill="url(#paint1_linear_6287_3180)"/>
</g>
<defs>
<linearGradient id="paint0_linear_6287_3180" x1="43.4981" y1="32.2215" x2="38.0546" y2="87.9818" gradientUnits="userSpaceOnUse">
<stop stop-color="#BD5AB3"/>
<stop offset="1" stop-color="#BD5AB3" stop-opacity="0"/>
</linearGradient>
<linearGradient id="paint1_linear_6287_3180" x1="67.5948" y1="59.3924" x2="74.1004" y2="16.5716" gradientUnits="userSpaceOnUse">
<stop stop-color="#BD5AB3"/>
<stop offset="1" stop-color="#D86DCD" stop-opacity="0"/>
</linearGradient>
</defs>
</svg>
