<svg width="87" height="87" viewBox="0 0 87 87" fill="none" xmlns="http://www.w3.org/2000/svg">
<path d="M43.5 0L44.4958 28.3076L49.1779 0.372148L46.4702 28.5675L54.7586 1.48223L48.3939 29.083L60.1467 3.31124L50.2338 29.8451L65.25 5.82789L51.9586 30.8409L69.9811 8.98913L53.5385 32.0532L74.2591 12.7409L54.9468 33.4615L78.0109 17.0189L56.1591 35.0414L81.1721 21.75L57.1549 36.7662L83.6888 26.8533L57.917 38.6061L85.5178 32.2414L58.4325 40.5297L86.6278 37.8221L58.6924 42.5042L87 43.5L58.6924 44.4958L86.6278 49.1779L58.4325 46.4702L85.5178 54.7586L57.917 48.3939L83.6888 60.1467L57.1549 50.2338L81.1721 65.25L56.1591 51.9586L78.0109 69.9811L54.9468 53.5385L74.2591 74.2591L53.5385 54.9468L69.9811 78.0109L51.9586 56.1591L65.25 81.1721L50.2338 57.1549L60.1467 83.6888L48.3939 57.917L54.7586 85.5178L46.4702 58.4325L49.1779 86.6278L44.4958 58.6924L43.5 87L42.5042 58.6924L37.8221 86.6278L40.5297 58.4325L32.2414 85.5178L38.6061 57.917L26.8533 83.6888L36.7662 57.1549L21.75 81.1721L35.0414 56.1591L17.0189 78.0109L33.4615 54.9468L12.7409 74.2591L32.0532 53.5385L8.98913 69.9811L30.8409 51.9586L5.82789 65.25L29.8451 50.2338L3.31124 60.1467L29.083 48.3939L1.48223 54.7586L28.5675 46.4702L0.372148 49.1779L28.3076 44.4958L0 43.5L28.3076 42.5042L0.372148 37.8221L28.5675 40.5297L1.48223 32.2414L29.083 38.6061L3.31124 26.8533L29.8451 36.7662L5.82789 21.75L30.8409 35.0414L8.98913 17.0189L32.0532 33.4615L12.7409 12.7409L33.4615 32.0532L17.0189 8.98913L35.0414 30.8409L21.75 5.82789L36.7662 29.8451L26.8533 3.31124L38.6061 29.083L32.2414 1.48223L40.5297 28.5675L37.8221 0.372148L42.5042 28.3076L43.5 0Z" fill="url(#paint0_radial_6287_3202)"/>
<defs>
<radialGradient id="paint0_radial_6287_3202" cx="0" cy="0" r="1" gradientUnits="userSpaceOnUse" gradientTransform="translate(43.5 41.8688) rotate(81.3843) scale(54.4456)">
<stop stop-color="#E37575"/>
<stop offset="1" stop-color="#663535" stop-opacity="0"/>
</radialGradient>
</defs>
</svg>
