<svg width="90" height="73" viewBox="0 0 90 73" fill="none" xmlns="http://www.w3.org/2000/svg">
<path d="M0 0.838867C0 0.882812 3.88477 4.85547 8.63965 9.66309C13.3857 14.4707 18.8174 19.9727 20.707 21.8887L24.1348 25.3779L25.6025 25.791C26.4111 26.0195 27.0527 26.2305 27.0264 26.248C27 26.2744 24.9961 26.5117 24.6797 26.5293C24.4688 26.5381 24.6709 26.6875 25.0752 26.8281C26.042 27.1709 26.4639 27.3379 26.4375 27.373C26.4199 27.3906 25.7432 27.2764 24.9434 27.1094L23.4844 26.8193L20.0742 23.9277C18.1934 22.3369 16.1455 20.5967 15.5127 20.0693C14.8887 19.5332 13.1484 18.0654 11.6543 16.7998C10.1602 15.5254 8.9209 14.5059 8.90332 14.5234C8.88574 14.541 10.459 16.7998 12.4014 19.5508C14.3438 22.3018 16.5498 25.4219 17.2969 26.4854C18.0527 27.5488 18.9844 28.876 19.3799 29.4297L20.0918 30.4404L21.1465 30.5107C21.7178 30.5459 23.7129 30.6074 25.5762 30.6426L28.9512 30.7041L28.0371 31.0908C27.5273 31.3018 27.0791 31.5039 27.0352 31.5479C26.9561 31.6182 26.9297 31.6094 28.4238 32.0225C29.0479 32.1895 29.584 32.3564 29.6104 32.3828C29.6367 32.4092 29.2061 32.4092 28.6523 32.3828C28.0986 32.3564 25.8838 32.2686 23.7305 32.1895L19.8281 32.04L17.1123 30.8623C15.6182 30.2119 14.3789 29.7021 14.3525 29.7197C14.335 29.7461 15.4863 31.0732 16.9189 32.6729L19.5205 35.582H20.1973C21.8672 35.582 27.8965 35.1602 29.7422 34.9141C30.2695 34.8525 30.7178 34.8086 30.7354 34.8262C30.7793 34.8701 30.1816 35.2217 28.7227 36.0303C28.1514 36.3379 27.6855 36.6279 27.6855 36.6719C27.6855 36.7158 28.0459 36.7246 28.5029 36.6895C28.9424 36.6631 29.9883 36.6367 30.8232 36.6279L32.335 36.6104L32.9854 37.4805C34.0576 38.9043 35.4199 40.1084 36.4395 40.5479C37.4062 40.9609 37.5908 40.9873 39.4365 40.9697L41.2119 40.9521L41.2383 42.332L41.2646 43.7119L42.0908 45.5137C42.8203 47.1221 43.4004 48.4492 44.4727 51.0068C44.7539 51.6572 44.8418 51.7979 45 51.7979C45.1582 51.7979 45.2461 51.6572 45.5273 51.0068C46.5996 48.4492 47.1797 47.1221 47.9092 45.5137L48.7354 43.7119L48.7617 42.332L48.7881 40.9521L50.5635 40.9697C52.4092 40.9873 52.5938 40.9609 53.5605 40.5479C54.5801 40.1084 55.9424 38.9043 57.0146 37.4805L57.665 36.6104L59.1768 36.6279C60.0117 36.6367 61.0576 36.6631 61.5059 36.6895C61.9541 36.7246 62.3145 36.7158 62.3145 36.6719C62.3145 36.6279 61.8486 36.3379 61.2773 36.0303C59.8184 35.2217 59.2207 34.8701 59.2646 34.8262C59.2822 34.8086 59.7305 34.8525 60.2578 34.9141C62.1035 35.1602 68.1328 35.582 69.8027 35.582H70.4795L73.0811 32.6729C74.5137 31.0732 75.665 29.7461 75.6475 29.7197C75.6211 29.7021 74.3818 30.2119 72.8877 30.8623L70.1719 32.04L66.2695 32.1895C64.1162 32.2686 61.9014 32.3564 61.3477 32.3828C60.7939 32.4092 60.3633 32.4092 60.3896 32.3828C60.416 32.3564 60.9521 32.1895 61.5762 32.0225C63.0703 31.6094 63.0439 31.6182 62.9648 31.5479C62.9209 31.5039 62.4727 31.3018 61.9629 31.0908L61.0488 30.7041L64.4238 30.6426C66.2871 30.6074 68.2822 30.5459 68.8535 30.5107L69.9082 30.4404L70.6201 29.4297C71.0156 28.876 71.9473 27.5488 72.7031 26.4854C73.4502 25.4219 75.6562 22.3018 77.5986 19.5508C79.541 16.7998 81.1143 14.541 81.0967 14.5234C81.0791 14.5059 79.8398 15.5254 78.3457 16.7998C76.8516 18.0654 75.1201 19.5332 74.4873 20.0693C73.8633 20.5967 71.8066 22.3369 69.9258 23.9277L66.5156 26.8193L65.0566 27.1094C64.2568 27.2764 63.5801 27.3906 63.5625 27.373C63.5361 27.3379 63.958 27.1709 64.9336 26.8281C65.3291 26.6875 65.5312 26.5381 65.3291 26.5293C64.9951 26.5117 63 26.2744 62.9736 26.248C62.9473 26.2305 63.6064 26.0195 64.4238 25.791L65.918 25.3604L66.8936 24.3408C67.4385 23.7783 72.2109 18.9268 77.5107 13.5654C89.5518 1.375 90.0352 0.874023 89.9912 0.821289C89.9648 0.803711 89.1562 1.41016 88.1982 2.16602C81.6592 7.3252 70.9365 15.7803 70.3125 16.2637C69.8994 16.5889 68.5811 17.626 67.3682 18.584C61.8398 22.9521 61.5938 23.1367 59.8975 24.1475C57.1465 25.7998 54.8701 27.3643 54.334 27.9795C54.0176 28.3311 53.9561 28.6123 53.6572 30.8096C53.1211 34.7734 53.0156 35.0986 51.4951 37.0762C51.0293 37.6914 50.0977 38.6758 50.0977 38.5527C50.0977 38.5264 50.2471 38.1924 50.4229 37.8145C50.5986 37.4365 50.748 37.0059 50.748 36.8477C50.748 36.4521 50.1152 35.2129 49.5703 34.5449C49.3242 34.2461 49.1484 34 49.1748 34C49.21 34 49.4033 34.1143 49.6055 34.2549C50.0713 34.5801 50.4756 35.0371 50.7129 35.4941C50.8096 35.6875 50.915 35.8457 50.9502 35.8457C51.0645 35.8457 50.8623 34.2812 50.6602 33.6396C50.3701 32.7168 50.2646 32.6201 49.0342 32.207L48.3838 31.9873L48.832 31.9785C49.0781 31.9785 49.4473 32.04 49.6494 32.1104C49.8516 32.1807 50.0098 32.1982 50.0098 32.1455C50.0098 31.9785 48.4541 30.5195 48.0322 30.291C47.4346 29.9746 46.5381 29.6406 46.8457 29.8428C47.1621 30.0625 47.7246 30.6514 47.7246 30.7656C47.7246 30.8271 47.6191 30.7656 47.4873 30.6426C47.3467 30.5195 46.9424 30.2734 46.5732 30.0977C46.2041 29.9219 45.8789 29.7197 45.8438 29.6494C45.7734 29.4648 46.002 28.8057 46.3711 28.1289C46.626 27.6543 46.6611 27.5225 46.6172 27.2061C46.5205 26.5645 46.4502 26.5557 46.1953 27.1533L45.958 27.7158L46.0107 27.3291C46.0371 27.1182 46.1426 26.749 46.248 26.5117L46.4326 26.0898L46.1777 25.7119C46.0459 25.5098 45.8613 25.1055 45.7822 24.8154L45.624 24.2881V24.8594C45.6064 25.7559 45.5098 26.8809 45.4395 26.8369C45.4043 26.8193 45.3516 26.0195 45.3252 25.0615C45.2725 23.3916 45.1143 21.3438 45.0352 21.2646C45.0176 21.2471 44.9824 21.2471 44.9648 21.2646C44.8857 21.3438 44.7275 23.3916 44.6748 25.0615C44.6484 26.0195 44.5957 26.8193 44.5605 26.8369C44.4902 26.8809 44.3936 25.7559 44.376 24.8594V24.2881L44.2178 24.8154C44.1387 25.1055 43.9541 25.5098 43.8223 25.7119L43.5674 26.0898L43.752 26.5117C43.8574 26.749 43.9629 27.1182 43.9893 27.3291L44.042 27.7158L43.8047 27.1533C43.5498 26.5557 43.4795 26.5645 43.3828 27.2061C43.3389 27.5225 43.374 27.6543 43.6289 28.1289C43.998 28.8057 44.2266 29.4648 44.1562 29.6494C44.1211 29.7197 43.7959 29.9219 43.4268 30.0977C43.0576 30.2734 42.6533 30.5195 42.5215 30.6426C42.3809 30.7656 42.2754 30.8271 42.2754 30.7656C42.2754 30.6514 42.8379 30.0625 43.1543 29.8428C43.4619 29.6406 42.5654 29.9746 41.9678 30.291C41.5459 30.5195 39.9902 31.9785 39.9902 32.1455C39.9902 32.1982 40.1484 32.1807 40.3506 32.1104C40.5527 32.04 40.9219 31.9785 41.168 31.9785L41.6162 31.9873L40.9658 32.207C39.7354 32.6201 39.6299 32.7168 39.3398 33.6396C39.1377 34.2812 38.9355 35.8457 39.0498 35.8457C39.085 35.8457 39.1904 35.6875 39.2871 35.4941C39.5244 35.0371 39.9287 34.5801 40.3945 34.2549C40.5967 34.1143 40.79 34 40.8252 34C40.8516 34 40.6758 34.2461 40.4297 34.5537C39.8848 35.2129 39.252 36.4521 39.252 36.8477C39.252 37.0059 39.4014 37.4365 39.5771 37.8145C39.7529 38.1924 39.9023 38.5264 39.9023 38.5527C39.9023 38.6758 38.9707 37.6914 38.5049 37.0762C36.9844 35.0986 36.8789 34.7734 36.3428 30.8096C36.0439 28.6123 35.9824 28.3311 35.666 27.9795C35.1299 27.3643 32.8535 25.7998 30.1025 24.1475C28.4062 23.1367 28.1777 22.9609 22.6758 18.6191C21.4893 17.6875 20.1885 16.6592 19.7842 16.3428C18.8965 15.6484 16.6729 13.8994 7.33887 6.53418C3.42773 3.44922 0.166992 0.891602 0.114258 0.838867C0.0439453 0.786133 0 0.786133 0 0.838867ZM44.4199 31.8467C44.6572 32.8398 44.6221 33.3232 44.2969 33.8506C44.1475 34.0879 44.042 34.2988 44.0596 34.3252C44.0771 34.3428 44.2002 34.3164 44.332 34.2637C44.4639 34.2197 44.7627 34.1758 45 34.1758C45.2373 34.1758 45.5361 34.2197 45.668 34.2637C45.7998 34.3164 45.9229 34.3428 45.9404 34.3252C45.958 34.2988 45.8525 34.0879 45.7031 33.8506C45.4922 33.5166 45.4307 33.3057 45.4219 32.9629C45.4219 32.4531 45.6943 31.1875 45.8086 31.1875C45.9316 31.1875 46.3184 32.084 46.3184 32.3652C46.3184 32.5586 46.4502 32.7344 46.9248 33.1826C47.7598 33.9561 47.9971 34.4395 48.085 35.6084C48.1201 36.1006 48.208 36.6982 48.2871 36.9355C48.4717 37.4893 48.4629 38.4297 48.2871 38.9922C47.918 40.1172 46.793 41.0312 45.5098 41.251L45.1758 41.3037V40.6973V40.0908L45.5273 39.9854C47.1797 39.4932 47.2852 37.0938 45.6855 36.4258C44.4463 35.9072 43.0664 36.8301 43.0664 38.1748C43.0664 39.0186 43.6465 39.7832 44.4375 39.9941L44.8242 40.0996V40.7061V41.3125L44.543 41.251C43.5234 41.0488 42.7676 40.583 42.1787 39.8008C41.5898 39.0186 41.4053 37.876 41.7129 36.9355C41.792 36.6982 41.8799 36.1006 41.915 35.6084C42.0029 34.4395 42.2402 33.9561 43.0752 33.1826C43.5498 32.7344 43.6816 32.5586 43.6816 32.3652C43.6816 32.084 44.0684 31.1875 44.1914 31.1875C44.2266 31.1875 44.332 31.4863 44.4199 31.8467ZM40.79 36.9619C40.7373 37.1465 40.667 37.6387 40.6318 38.0605C40.5879 38.7549 40.5615 38.834 40.4033 38.834C40.2363 38.834 40.2363 38.79 40.2891 38.2275C40.3154 37.9023 40.4033 37.4717 40.4824 37.2871C40.5615 37.0938 40.6582 36.8477 40.7021 36.7334C40.834 36.4082 40.8955 36.584 40.79 36.9619ZM49.4648 37.1553C49.5703 37.4189 49.6846 37.9023 49.7197 38.2363C49.7725 38.8076 49.7637 38.834 49.5791 38.834C49.4209 38.834 49.3945 38.7812 49.3945 38.4121C49.3945 38.0078 49.2979 37.2959 49.1748 36.7686C49.0781 36.3818 49.2451 36.5928 49.4648 37.1553Z" fill="#FAFAFA"/>
<path d="M29.707 37.7354C27.334 38.2803 20.5137 39.8008 20.4434 39.8008C20.417 39.8008 20.3906 39.8359 20.3906 39.8799C20.3906 39.9238 20.5576 39.9854 20.7686 40.0205C20.9707 40.0557 22.2275 40.2754 23.5547 40.5127C24.8818 40.75 26.0684 40.9434 26.1914 40.9434C26.332 40.9434 27.2461 40.3721 28.7402 39.3525C30.0234 38.4736 31.21 37.665 31.377 37.5508C31.7812 37.2695 31.6846 37.2783 29.707 37.7354Z" fill="#FAFAFA"/>
<path d="M58.6209 37.5508C58.7879 37.665 59.9745 38.4736 61.2577 39.3525C62.7518 40.3721 63.6659 40.9434 63.8065 40.9434C63.9295 40.9434 65.1161 40.75 66.4432 40.5127C67.7704 40.2754 69.0272 40.0557 69.2381 40.0205C69.4403 39.9854 69.6073 39.9238 69.6073 39.8799C69.6073 39.8359 69.5809 39.8008 69.5545 39.8008C69.5018 39.8008 66.6102 39.1592 60.4666 37.7793C59.3768 37.542 58.4539 37.3398 58.4012 37.3398C58.3573 37.3398 58.4539 37.4365 58.6209 37.5508Z" fill="#FAFAFA"/>
<path d="M29.1885 42.0684C27.4835 43.545 26.1212 44.7754 26.1651 44.7842C26.209 44.8018 27.1495 44.503 28.2569 44.1251L30.2696 43.4307L31.3155 41.5059C32.4844 39.3614 32.4844 39.3614 32.379 39.3614C32.335 39.3702 30.9024 40.5831 29.1885 42.0684Z" fill="#FAFAFA"/>
<path d="M57.5885 39.4581C57.6236 39.5284 58.1158 40.4512 58.6871 41.5059L59.733 43.4307L61.7457 44.1251C62.8531 44.503 63.7935 44.8018 63.8375 44.7842C63.9166 44.7579 57.8258 39.4405 57.6412 39.3702C57.5885 39.3526 57.5621 39.3965 57.5885 39.4581Z" fill="#FAFAFA"/>
<path d="M32.7214 44.1074C31.6491 45.6982 30.8054 47.0078 30.8493 47.0078C31.0163 47.0078 33.7673 45.0391 33.8464 44.8633C33.9694 44.582 34.7253 41.374 34.6989 41.2861C34.6813 41.2334 33.7936 42.5078 32.7214 44.1074Z" fill="#FAFAFA"/>
<path d="M55.2812 41.2861C55.2812 41.4531 56.0635 44.6436 56.1514 44.8633C56.2305 45.0391 58.9814 47.0078 59.1484 47.0078C59.2187 47.0078 55.5977 41.5234 55.3516 41.251C55.3076 41.207 55.2812 41.2158 55.2812 41.2861Z" fill="#FAFAFA"/>
<path d="M37.3535 41.9454C37.3535 41.9629 36.9756 43.0352 36.5186 44.336C36.0615 45.628 35.6836 46.7442 35.6836 46.8145C35.6836 46.876 36.0791 46.4717 36.5625 45.9092L37.4414 44.8897V43.3955C37.4414 42.5782 37.4238 41.9102 37.3975 41.9102C37.3711 41.9102 37.3535 41.9278 37.3535 41.9454Z" fill="#FAFAFA"/>
<path d="M52.5586 43.3868V44.8897L53.4375 45.9092C53.9209 46.4717 54.3164 46.876 54.3164 46.8145C54.3164 46.6827 52.6729 41.9893 52.6025 41.919C52.5762 41.9014 52.5586 42.5606 52.5586 43.3868Z" fill="#FAFAFA"/>
<path d="M36.8281 51.4639C36.8281 51.499 37.707 51.7275 38.7881 51.9648C39.8604 52.1933 40.9678 52.4482 41.2402 52.5097C41.7148 52.6328 41.7852 52.624 42.6025 52.4043C43.499 52.1582 43.7891 52.0176 43.4111 52.0176C43.2881 52.0176 42.5762 51.956 41.8291 51.8857C41.082 51.8154 39.7812 51.7012 38.9375 51.6221C38.0937 51.5517 37.2676 51.4726 37.1182 51.4463C36.96 51.4199 36.8281 51.4287 36.8281 51.4639Z" fill="#FAFAFA"/>
<path d="M51.3744 51.5781C48.1576 51.8945 46.7953 52.0176 46.5843 52.0176C46.2064 52.0176 46.514 52.1582 47.4017 52.4043C48.2191 52.624 48.2894 52.6328 48.764 52.5097C49.0365 52.4482 50.1439 52.1933 51.2162 51.9648C52.2972 51.7275 53.1761 51.5078 53.1761 51.4639C53.1761 51.4287 53.1234 51.4111 53.0707 51.4111C53.0091 51.4199 52.2445 51.499 51.3744 51.5781Z" fill="#FAFAFA"/>
<path d="M42.7129 53.5117C40.3838 54.1973 39.3027 54.5137 38.1426 54.8477C37.4395 55.0498 36.8594 55.2168 36.8506 55.2256C36.8418 55.2256 36.4639 56.4736 35.9981 57.9942C35.541 59.5147 34.9258 61.5713 34.627 62.5557C34.3281 63.5313 34.1084 64.3574 34.126 64.375C34.1524 64.4014 43.0557 54.0654 43.583 53.3975C43.7324 53.2041 43.7236 53.2129 42.7129 53.5117Z" fill="#FAFAFA"/>
<path d="M46.4086 53.3887C46.9624 54.0918 55.8481 64.4014 55.8745 64.375C55.892 64.3574 55.6723 63.5313 55.3735 62.5557C53.6508 56.8428 53.1762 55.2608 53.1762 55.2256C53.1762 55.1992 53.1235 55.1817 53.062 55.1817C52.9917 55.1817 52.1303 54.9443 51.1459 54.6543C49.5903 54.1885 46.9799 53.4238 46.4526 53.2744C46.2944 53.2305 46.2856 53.2393 46.4086 53.3887Z" fill="#FAFAFA"/>
<path d="M43.4427 56.2451L42.2738 58.6357V60.0508C42.2738 61.5713 42.2298 61.2812 43.1351 65.5527C43.2757 66.2031 43.6625 68.0225 43.9964 69.5957L44.6029 72.4521L44.6293 67.7676C44.638 65.1836 44.638 61 44.6293 58.4687L44.6029 53.8545L43.4427 56.2451Z" fill="#FAFAFA"/>
<path d="M45.3633 63.1358C45.3721 68.2598 45.3809 72.4082 45.4072 72.3643C45.4336 72.2852 46.6992 66.3613 46.9365 65.2012C46.9805 64.9815 47.1826 64.0586 47.376 63.1446C47.7012 61.5889 47.7275 61.3867 47.7275 60.0596V58.6358L46.5498 56.2276L45.3633 53.8194V63.1358Z" fill="#FAFAFA"/>
</svg>
