<svg width="124" height="53" viewBox="0 0 124 53" fill="none" xmlns="http://www.w3.org/2000/svg">
<path d="M11.125 8.52L5.815 42H0.00999992L5.32 8.52H11.125ZM21.6515 34.62V27.24H27.5915V34.8C27.5915 37.05 27.0365 38.91 25.9265 40.38C24.8465 41.82 23.0915 42.54 20.6615 42.54H19.4465C16.8065 42.54 14.9615 41.82 13.9115 40.38C12.8915 38.94 12.3815 37.02 12.3815 34.62V15.72C12.3815 13.47 12.9365 11.64 14.0465 10.23C15.1865 8.82 16.9865 8.115 19.4465 8.115H20.6615C22.0415 8.115 23.1965 8.31 24.1265 8.7C25.0865 9.09 25.8065 9.66 26.2865 10.41C26.7665 11.13 27.0965 11.895 27.2765 12.705C27.4865 13.515 27.5915 14.445 27.5915 15.495V21.12H21.6515V15.72C21.6515 14.43 21.1415 13.785 20.1215 13.785C19.1315 13.785 18.6365 14.43 18.6365 15.72V34.62C18.6365 35.97 19.1465 36.645 20.1665 36.645C21.1565 36.645 21.6515 35.97 21.6515 34.62ZM40.0146 8.52L34.7046 42H28.8996L34.2096 8.52H40.0146Z" fill="#F5F5F5"/>
<path d="M52.584 8.864V23H50.437V8.864H52.584ZM53.4614 8.864H55.3994L57.2424 16.445V8.864H59.1994V23H57.4514L55.3994 14.868V23H53.4614V8.864ZM59.8009 8.864H65.5389V10.916H63.7339V23H61.6059V10.916H59.8009V8.864ZM66.1528 8.864H71.0358V10.916H68.2998V14.621H70.4468V16.768H68.2998V20.853H71.1498V23H66.1528V8.864ZM73.9219 10.783V14.678H74.4919C75.0112 14.678 75.2709 14.3423 75.2709 13.671V11.695C75.2709 11.3657 75.2202 11.1313 75.1189 10.992C75.0176 10.8527 74.8086 10.783 74.4919 10.783H73.9219ZM73.9219 16.692V23H71.7749V8.864H75.2519C75.9866 8.864 76.5249 9.035 76.8669 9.377C77.2216 9.70633 77.3989 10.2637 77.3989 11.049V13.557C77.3989 14.507 77.0886 15.1087 76.4679 15.362C77.0886 15.6407 77.3989 16.1537 77.3989 16.901V21.86C77.3989 22.2527 77.4686 22.601 77.6079 22.905V23H75.4799C75.3406 22.772 75.2709 22.3857 75.2709 21.841V17.585C75.2709 17.2557 75.2202 17.0277 75.1189 16.901C75.0176 16.7617 74.8022 16.692 74.4729 16.692H73.9219ZM78.2134 8.864H80.1514L81.9944 16.445V8.864H83.9514V23H82.2034L80.1514 14.868V23H78.2134V8.864ZM84.8188 8.864H89.7018V10.916H86.9658V14.621H89.1128V16.768H86.9658V20.853H89.8158V23H84.8188V8.864ZM90.1749 8.864H95.9129V10.916H94.1079V23H91.9799V10.916H90.1749V8.864ZM53.952 39.131V35.844H56.061V39.112C56.061 41.1513 55.206 42.171 53.496 42.171H53.021C51.2603 42.171 50.38 41.1767 50.38 39.188V30.562C50.38 29.7513 50.5827 29.08 50.988 28.548C51.3933 28.0033 52.0457 27.731 52.945 27.731H53.439C53.9963 27.731 54.4587 27.8133 54.826 27.978C55.206 28.1427 55.4783 28.3833 55.643 28.7C55.8077 29.0167 55.9153 29.327 55.966 29.631C56.0293 29.9223 56.061 30.2707 56.061 30.676V33.203H53.952V30.714C53.952 30.0933 53.7113 29.783 53.23 29.783C52.9767 29.783 52.7993 29.859 52.698 30.011C52.6093 30.1503 52.565 30.3847 52.565 30.714V39.112C52.565 39.758 52.793 40.081 53.249 40.081C53.7177 40.081 53.952 39.7643 53.952 39.131ZM58.9668 29.783V33.678H59.5368C60.0561 33.678 60.3158 33.3423 60.3158 32.671V30.695C60.3158 30.3657 60.2651 30.1313 60.1638 29.992C60.0625 29.8527 59.8535 29.783 59.5368 29.783H58.9668ZM58.9668 35.692V42H56.8198V27.864H60.2968C61.0315 27.864 61.5698 28.035 61.9118 28.377C62.2665 28.7063 62.4438 29.2637 62.4438 30.049V32.557C62.4438 33.507 62.1335 34.1087 61.5128 34.362C62.1335 34.6407 62.4438 35.1537 62.4438 35.901V40.86C62.4438 41.2527 62.5135 41.601 62.6528 41.905V42H60.5248C60.3855 41.772 60.3158 41.3857 60.3158 40.841V36.585C60.3158 36.2557 60.2651 36.0277 60.1638 35.901C60.0625 35.7617 59.8471 35.692 59.5178 35.692H58.9668ZM63.2583 27.864H68.1413V29.916H65.4053V33.621H67.5523V35.768H65.4053V39.853H68.2553V42H63.2583V27.864ZM72.4714 42L72.1864 39.34H70.6094L70.3434 42H68.4244L70.1534 27.864H72.6994L74.5424 42H72.4714ZM71.3884 32.006L70.8374 37.231H71.9584L71.3884 32.006ZM73.8097 27.864H79.5477V29.916H77.7427V42H75.6147V29.916H73.8097V27.864ZM82.3086 27.864V42H80.1616V27.864H82.3086ZM84.554 42L82.768 27.864H84.953L85.922 37.592L86.91 27.864H88.943L87.157 42H84.554ZM89.4018 27.864H94.2848V29.916H91.5488V33.621H93.6958V35.768H91.5488V39.853H94.3988V42H89.4018V27.864ZM99.1006 27.864V42H96.9536V27.864H99.1006Z" fill="#F5F5F5"/>
</svg>
